PathFileType	4	(X/Y/Z)	OpenSim_Sub04_CSStiffKnee_Gyro.trc
DataRate	CameraRate	NumFrames	NumMarkers	Units	OrigDataRate	OrigDataStartFrame	OrigNumFrames
100	100	23	8	m	100	2780	7413
Frame#	Time	torso_imu_offset_imu	pelvis_imu_offset_imu	tibia_r_imu_offset_imu	femur_r_imu_offset_imu	tibia_l_imu_offset_imu	femur_l_imu_offset_imu	toes_r_imu_offset_imu	toes_l_imu_offset_imu
				X1	Y1	Z1	X2	Y2	Z2	X3	Y3	Z3	X4	Y4	Z4	X5	Y5	Z5	X6	Y6	Z6	X7	Y7	Z7	X8		Y8	Z8	

2780	27.79000000	-0.26023262	-0.15394549	0.04488610	0.21846865	0.30245029	0.13088986	-0.26671990	-0.44168133	-0.53038457	-0.94612109	-0.43198291	-1.07156328	0.16856799	-0.07240568	1.91057753	0.58710477	0.84422259	-0.04429446	0.17009334	-0.04028830	-0.07889592	1.75360394	-3.59846774	0.77635379
2781	27.80000000	-0.26290582	-0.13249788	0.04569252	0.27952289	0.32311563	0.04440934	-0.13033430	-0.44576847	-0.59620811	-1.13119535	-0.54078867	-1.12880486	-0.11025298	-0.06220409	1.93506834	0.57463771	0.98235596	-0.22526077	0.05083054	-0.10427425	0.02622396	1.89298665	-3.54372185	0.98348676
2782	27.81000000	-0.25978700	-0.10756538	0.05960769	0.28558184	0.29360110	-0.03477007	0.00008640	-0.45412085	-0.84804911	-1.18585793	-0.66011798	-1.13618707	-0.44677954	-0.08268850	1.92286896	0.42656076	1.08306895	-0.38047591	-0.00969527	-0.18942109	0.09795627	1.68067185	-3.51040260	1.19901078
2783	27.82000000	-0.23833351	-0.08156056	0.07323110	0.24711058	0.24506977	-0.10576186	0.22428545	-0.45584847	-1.07612681	-1.13951832	-0.66796904	-1.13255919	-0.70769207	-0.09514020	1.80967726	0.23596133	1.03323482	-0.46064058	-0.01864573	-0.25836376	0.12655251	1.37018745	-3.35747215	1.36561695
2784	27.83000000	-0.19349551	-0.06198921	0.07105887	0.18001011	0.21001654	-0.16774296	0.40620462	-0.45816539	-1.15708728	-0.96675864	-0.59567877	-1.20891326	-0.96739529	-0.07954142	1.64202516	0.07704949	0.96589602	-0.47718622	0.00001625	-0.25102650	0.12711132	1.12254870	-3.10665572	1.50798880
2785	27.84000000	-0.15634333	-0.05447010	0.07199448	0.10094739	0.18595050	-0.21304666	0.52815360	-0.46736970	-1.06488295	-0.77410594	-0.51888708	-1.33690304	-1.10314196	-0.08414081	1.43218948	-0.17168948	0.82336893	-0.47140461	-0.00754321	-0.22331869	0.12340353	1.26402349	-2.61221259	1.50132900
2786	27.85000000	-0.13850859	-0.05928658	0.08403147	0.02220880	0.15924421	-0.23960943	0.50040311	-0.45243937	-0.83681257	-0.66904546	-0.51154026	-1.46282177	-1.06248337	-0.08984914	1.21916865	-0.32343197	0.63049529	-0.38970026	0.02145741	-0.20054248	0.11976515	1.66424467	-1.99006952	1.35511909
2787	27.86000000	-0.15110882	-0.05912239	0.09659639	-0.04608067	0.13841563	-0.24615772	0.34285171	-0.40150952	-0.55075706	-0.66412622	-0.54409458	-1.55847524	-0.93407371	-0.09883496	1.06017533	-0.40089990	0.48055250	-0.27380166	0.05308973	-0.17474409	0.12696691	1.06497648	-0.72624626	0.76990914
2788	27.87000000	-0.15136355	-0.07067915	0.10552989	-0.11671625	0.11550206	-0.24546783	0.15663664	-0.31641256	-0.31669997	-0.65685331	-0.54836327	-1.61132287	-0.36123368	-0.11675768	0.64098081	-0.56573696	0.30985655	-0.14806463	0.05086095	-0.15507378	0.11374336	0.15687801	0.15947498	-0.01593488
2789	27.88000000	-0.15129157	-0.08141536	0.12404887	-0.15722753	0.10595632	-0.25411862	0.01840377	-0.21092321	-0.19155751	-0.58379934	-0.54480864	-1.64298279	0.69451385	-0.06272594	-0.35117228	-0.78276732	0.06457990	0.01353462	0.05097266	-0.12302066	0.07907503	-0.21313633	0.63953559	-0.58045578
2790	27.89000000	-0.13704049	-0.06610282	0.13608305	-0.13283914	0.11197887	-0.27323990	-0.01742518	-0.14343372	-0.15980661	-0.48925961	-0.54914908	-1.68059955	1.20588547	0.19143631	-1.51942679	-0.82168206	-0.25113997	0.10670732	0.05669074	-0.07813633	0.04701182	-0.27065677	1.25400878	-0.86197888
2791	27.90000000	-0.10684489	-0.07514220	0.12598021	-0.06238038	0.10503454	-0.28443427	0.03302331	-0.08121487	-0.14979858	-0.40901437	-0.57336345	-1.71297248	0.72264689	0.45047413	-2.15337868	-0.69267921	-0.50301506	0.01501651	0.02846978	-0.05820716	0.03213303	-0.31053570	1.75243902	-0.89535282
2792	27.91000000	-0.09692179	-0.09069120	0.12524149	0.03088821	0.08037104	-0.27963862	0.12636482	-0.01704761	-0.10727065	-0.33566258	-0.62510161	-1.70983420	0.06032031	0.37124995	-2.24415474	-0.57421377	-0.45925943	-0.14283289	0.01555892	-0.05941406	0.03088817	-0.50302893	2.20966939	-0.80205976
2793	27.92000000	-0.10754498	-0.07806010	0.14313646	0.11721390	0.05271207	-0.25435248	0.24658850	0.03537708	-0.05240242	-0.27732819	-0.67713454	-1.69196668	-0.09809639	0.20367595	-2.26997404	-0.51611601	-0.12750641	-0.23398411	0.03933799	-0.03963892	0.02985750	-0.61530180	2.58828679	-0.63242026
2794	27.93000000	-0.14730462	-0.05320000	0.15185141	0.18719037	0.01296707	-0.21148946	0.36205316	0.06466598	-0.01921324	-0.24308296	-0.70034633	-1.68646277	0.01237258	0.21463579	-2.39152790	-0.49467645	0.24368769	-0.32952816	0.01995656	-0.02456279	0.01759804	-0.59547261	2.84037740	-0.43722184
2795	27.94000000	-0.19404590	-0.02260604	0.14259652	0.24660405	-0.03516631	-0.16536761	0.41951323	0.07095471	0.00127784	-0.21265987	-0.70432585	-1.68785546	0.12133551	0.27505165	-2.49717748	-0.45288545	0.48865411	-0.50061388	0.02075508	-0.02595496	-0.00481173	-0.51293367	2.95793909	-0.28661159
2796	27.95000000	-0.23444286	0.00514320	0.13530942	0.28381848	-0.07437970	-0.13145075	0.41517482	0.04916092	0.02426402	-0.19896152	-0.69899326	-1.69975585	0.23880382	0.24019180	-2.49375821	-0.42135719	0.56002164	-0.71837106	0.03421631	-0.02028862	-0.01705430	-0.42209594	2.92373264	-0.18515264
2797	27.96000000	-0.27131113	0.03381628	0.13598248	0.29032789	-0.10585263	-0.12647348	0.29940100	0.01254571	0.03566532	-0.26168582	-0.65657807	-1.70573166	0.37964302	0.15187687	-2.39966632	-0.38190831	0.53741066	-0.90775405	0.01964121	-0.03760503	-0.03264189	-0.40470961	2.76395771	-0.11493874
2798	27.97000000	-0.29456472	0.05039613	0.14043486	0.28392829	-0.12664981	-0.13668083	0.09717763	-0.01495450	0.04100733	-0.38475715	-0.58443989	-1.66579895	0.58947378	0.09868254	-2.29683975	-0.30574875	0.49296457	-1.02814863	0.00772220	-0.05909367	-0.04296086	-0.45936942	2.53494252	-0.05500232
2799	27.98000000	-0.30927295	0.05857291	0.14171360	0.26626569	-0.13055757	-0.15278854	-0.12955455	-0.03583034	0.02960610	-0.50690721	-0.50149602	-1.60103899	0.86184306	0.07447317	-2.25972414	-0.18723582	0.43390297	-1.11308901	-0.01814289	-0.05249089	-0.05339250	-0.52139857	2.28533224	-0.00533711
2800	27.99000000	-0.31735770	0.05698325	0.14182030	0.24817289	-0.10886510	-0.16127359	-0.33551376	-0.04877361	-0.01397626	-0.58978458	-0.41072562	-1.54265341	1.07385196	0.03320918	-2.24808060	-0.03181992	0.40082004	-1.16312868	-0.03843996	-0.04387323	-0.07732209	-0.48831688	2.12603112	-0.01522267
2801	28.00000000	-0.31519457	0.04319402	0.14424846	0.22132220	-0.07377528	-0.15688429	-0.47009545	-0.08760198	-0.03519560	-0.64168487	-0.32087699	-1.48651143	1.13181245	-0.00540367	-2.22043447	0.13454484	0.39784689	-1.16478245	-0.04574200	-0.05005702	-0.10190183	-0.35204473	2.10672742	-0.10073932
2802	28.01000000	-0.31902348	0.02686506	0.15139590	0.17317222	-0.04015070	-0.15057988	-0.56760633	-0.14701209	-0.03466006	-0.70349040	-0.24335402	-1.43019922	1.01344205	0.01260480	-2.19282183	0.27183946	0.40790158	-1.13279797	-0.04215115	-0.04837788	-0.12402719	-0.20323475	2.16995107	-0.23384844
